<?xml version="1.0" encoding="UTF-8" standalone="no"?>
<!-- Created with Inkscape (http://www.inkscape.org/) -->

<svg
   width="512"
   height="512"
   viewBox="0 0 512 512"
   version="1.1"
   id="svg1"
   inkscape:version="1.4 (e7c3feb1, 2024-10-09)"
   sodipodi:docname="logo-beyaz-512x512.svg"
   xmlns:inkscape="http://www.inkscape.org/namespaces/inkscape"
   xmlns:sodipodi="http://sodipodi.sourceforge.net/DTD/sodipodi-0.dtd"
   xmlns="http://www.w3.org/2000/svg"
   xmlns:svg="http://www.w3.org/2000/svg">
  <sodipodi:namedview
     id="namedview1"
     pagecolor="#ffffff"
     bordercolor="#000000"
     borderopacity="0.25"
     inkscape:showpageshadow="2"
     inkscape:pageopacity="0.0"
     inkscape:pagecheckerboard="0"
     inkscape:deskcolor="#d1d1d1"
     inkscape:document-units="px"
     inkscape:zoom="1.2042912"
     inkscape:cx="239.55999"
     inkscape:cy="245.78772"
     inkscape:window-width="1680"
     inkscape:window-height="991"
     inkscape:window-x="0"
     inkscape:window-y="31"
     inkscape:window-maximized="1"
     inkscape:current-layer="g7" />
  <defs
     id="defs1" />
  <g
     inkscape:label="Katman 1"
     inkscape:groupmode="layer"
     id="layer1">
    <g
       id="g2"
       transform="matrix(0.74180629,0,0,0.8484117,68.312694,46.308107)">
      <g
         id="g12"
         transform="matrix(0.37299025,0,0,0.35021044,119.03258,214.4563)">
        <g
           transform="matrix(0.17974144,0,0,-0.1571564,-503.14884,912.32259)"
           fill="#000000"
           stroke="none"
           id="g7">
          <path
             d="m 4919,9192 c -20,-48 -96,-229 -169,-402 -73,-173 -152,-364 -177,-425 -26,-60 -59,-141 -76,-180 -16,-38 -51,-122 -77,-185 -26,-63 -134,-322 -240,-575 -106,-253 -231,-552 -277,-665 -47,-113 -103,-247 -125,-299 -21,-51 -38,-94 -36,-95 25,-20 671,-286 677,-280 5,5 93,207 196,449 345,808 334,784 345,765 8,-15 171,-401 286,-680 36,-85 73,-175 84,-200 11,-25 45,-106 75,-180 31,-74 83,-198 116,-275 32,-77 88,-210 123,-295 35,-85 70,-158 77,-162 19,-10 85,-40 334,-148 414,-181 531,-232 584,-256 30,-13 55,-23 57,-22 2,3 -71,182 -336,823 -70,171 -153,371 -183,445 -30,74 -108,263 -172,420 -64,157 -132,321 -150,365 -275,671 -461,1118 -645,1555 -31,74 -99,237 -151,362 -52,125 -96,228 -99,228 -3,0 -21,-39 -41,-88 z"
             id="path1"
             style="fill:#ffffff" />
          <path
             d="m 4325,8439 c -468,-76 -906,-235 -1230,-447 -168,-111 -359,-289 -456,-427 -166,-235 -239,-459 -239,-734 0,-279 67,-504 217,-729 101,-153 285,-327 468,-444 121,-78 196,-115 590,-293 17,-7 86,-38 155,-68 69,-30 145,-64 170,-75 25,-12 135,-60 245,-107 378,-164 560,-243 650,-283 50,-22 144,-63 210,-92 66,-29 154,-67 195,-85 292,-129 983,-429 1490,-647 249,-107 473,-216 551,-268 84,-56 250,-224 277,-281 40,-81 28,-142 -50,-255 l -48,-70 81,-190 c 44,-104 114,-271 156,-371 42,-101 79,-183 82,-183 8,0 166,178 239,269 115,143 233,380 268,539 38,173 29,315 -32,500 -90,276 -225,479 -433,653 -194,163 -388,262 -1211,619 -80,35 -178,78 -218,97 -41,18 -75,33 -77,33 -3,0 -33,13 -67,29 -35,16 -128,57 -208,91 -80,34 -226,98 -325,142 -99,44 -301,133 -450,198 -148,65 -295,129 -325,143 -61,28 -398,174 -675,292 -99,43 -198,85 -220,95 -22,10 -103,45 -180,78 -375,161 -476,220 -606,351 -144,145 -200,293 -185,487 14,190 103,330 310,486 136,102 436,233 675,294 52,13 97,26 99,29 11,11 262,619 262,635 0,13 -10,12 -155,-11 z"
             id="path2"
             style="fill:#ffffff" />
          <path
             d="m 5514,8258 c 46,-112 107,-260 136,-329 l 52,-127 101,-37 c 279,-103 492,-251 666,-461 151,-183 243,-375 283,-591 12,-68 25,-123 29,-123 15,0 509,586 509,603 -1,37 -173,313 -265,423 -363,435 -830,701 -1444,823 -170,34 -163,53 -67,-181 z"
             id="path3"
             style="fill:#ffffff" />
          <path
             d="m 3198,5082 c -70,-174 -195,-486 -278,-692 -83,-206 -262,-649 -397,-985 -135,-335 -295,-731 -355,-880 -277,-684 -657,-1634 -663,-1658 -5,-17 -3,-27 4,-27 27,0 633,273 865,390 l 110,55 121,305 c 67,168 183,456 258,640 74,184 178,441 230,570 629,1555 917,2273 917,2286 0,7 -18,19 -40,28 -21,8 -58,24 -82,35 -80,37 -559,251 -561,251 -1,0 -59,-143 -129,-318 z"
             id="path4"
             style="fill:#ffffff" />
          <path
             d="m 1870,4198 c -85,-78 -230,-211 -322,-296 -194,-178 -180,-144 -153,-361 49,-393 189,-756 414,-1076 57,-80 132,-175 139,-175 4,0 71,160 149,355 l 143,355 -36,56 c -71,110 -144,294 -179,448 -39,168 -38,481 0,700 16,90 19,136 8,136 -5,0 -78,-64 -163,-142 z"
             id="path5"
             style="fill:#ffffff" />
          <path
             d="m 6160,4140 c 8,-15 385,-924 485,-1170 12,-30 43,-104 68,-165 25,-60 62,-150 82,-200 37,-91 70,-170 371,-890 92,-220 180,-433 197,-473 27,-66 34,-75 76,-96 55,-28 345,-159 646,-291 121,-53 244,-108 274,-121 30,-13 56,-22 58,-20 4,4 -64,168 -320,766 -71,168 -176,415 -232,550 -57,135 -135,322 -175,415 -40,94 -89,211 -110,260 -21,50 -89,212 -152,360 -63,149 -153,360 -199,469 l -84,199 -45,20 c -178,77 -282,123 -325,142 -157,70 -612,265 -618,265 -4,0 -3,-9 3,-20 z"
             id="path6"
             style="fill:#ffffff" />
          <path
             d="m 3030,2348 c 0,-2 -56,-143 -125,-313 -68,-170 -121,-312 -117,-316 20,-18 257,-135 409,-203 408,-181 821,-292 1304,-352 207,-26 774,-27 974,-1 444,57 864,180 1216,357 135,68 313,170 335,193 15,15 -227,602 -248,602 -7,0 -58,-30 -113,-67 -290,-193 -620,-322 -994,-388 -247,-44 -378,-55 -656,-54 -620,0 -1103,107 -1646,362 -88,42 -269,138 -314,168 -14,9 -25,14 -25,12 z"
             id="path7"
             style="fill:#ffffff" />
        </g>
      </g>
    </g>
  </g>
</svg>
