<?xml version="1.0" encoding="UTF-8" standalone="no"?>
<!-- Created with Inkscape (http://www.inkscape.org/) -->

<svg
   width="512"
   height="512"
   viewBox="0 0 512 512"
   version="1.1"
   id="svg1"
   inkscape:version="1.4 (e7c3feb1, 2024-10-09)"
   sodipodi:docname="logo-siyah-512x512.svg"
   xmlns:inkscape="http://www.inkscape.org/namespaces/inkscape"
   xmlns:sodipodi="http://sodipodi.sourceforge.net/DTD/sodipodi-0.dtd"
   xmlns="http://www.w3.org/2000/svg"
   xmlns:svg="http://www.w3.org/2000/svg">
  <sodipodi:namedview
     id="namedview1"
     pagecolor="#ffffff"
     bordercolor="#000000"
     borderopacity="0.25"
     inkscape:showpageshadow="2"
     inkscape:pageopacity="0.0"
     inkscape:pagecheckerboard="0"
     inkscape:deskcolor="#d1d1d1"
     inkscape:document-units="px"
     inkscape:zoom="0.60214562"
     inkscape:cx="286.47555"
     inkscape:cy="538.07582"
     inkscape:window-width="1920"
     inkscape:window-height="1021"
     inkscape:window-x="0"
     inkscape:window-y="31"
     inkscape:window-maximized="1"
     inkscape:current-layer="layer1" />
  <defs
     id="defs1" />
  <g
     inkscape:label="Katman 1"
     inkscape:groupmode="layer"
     id="layer1">
    <g
       id="g2"
       transform="matrix(0.74180629,0,0,0.8484117,68.312694,46.308107)">
      <path
         d="m 243.22303,62.023729 c -5.6,11.66667 -15.33334,31.53334 -21.53334,44.200001 -6.2,12.66667 -12.13333,24.8 -13.13333,27 -1,2.2 -8.46667,17.73334 -16.6,34.53334 -8.06667,16.73333 -14.73333,30.73333 -14.73333,31.06666 0,0.4 0.66667,0.86667 1.53333,1.06667 0.8,0.26666 10.26667,3.73333 21,7.73333 10.66667,4 19.73333,7.26667 20,7.26667 0.53333,0 9.6,-18.06667 26.26667,-52.53333 3.93334,-8.2 7.4,-14.73334 7.66667,-14.53334 0.33333,0.13334 11.06666,22.06667 23.86666,48.66667 18.86667,39 23.66667,48.46666 25,49.06666 0.93334,0.46667 6.6,2.66667 12.66667,5 15.6,6 31.66667,13.06667 41.2,18.06667 4.53333,2.4 8.4,4.2 8.6,4.06667 0.13333,-0.2 -7.33333,-16.2 -16.66667,-35.53334 C 330.82303,200.6904 314.02303,165.55707 304.6897,145.8904 282.82303,99.757069 254.2897,40.890399 253.82303,40.890399 c -0.2,0 -5,9.53333 -10.6,21.13333 z"
         id="path1"
         style="stroke-width:0.0666665" />
      <path
         d="m 279.8897,81.957069 c 0,0.33333 2.46666,5.66666 5.4,11.93333 3,6.200001 6.6,14.066671 8.06666,17.466671 l 2.66667,6.06666 9.53333,3.06667 c 17.73334,5.73333 31.2,13.66667 42.66667,25.33333 10.73333,10.86667 16.8,22.13334 19.6,36.2 0.6,3.06667 1.2,5.53333 1.4,5.53333 0.33333,0 10.8,-10.86666 26.93333,-27.79999 l 5.8,-6.13334 -3.33333,-5.4 c -4.93334,-7.86666 -8.8,-12.73333 -16.73333,-20.93333 -20.6,-21.26667 -48.66667,-35.466671 -84.33334,-42.666671 -13.73333,-2.8 -17.66666,-3.4 -17.66666,-2.66666 z"
         id="path2"
         style="stroke-width:0.0666665" />
      <path
         d="m 220.22303,82.690399 c -5.06667,0.46667 -18.66667,2.93333 -27.33334,4.93333 -23.06666,5.26667 -41.99999,12.666671 -58.66666,22.800001 -21.6,13.2 -36.199996,31.13334 -39.999996,49.13334 -1.6,7.66666 -1.33333,20.46666 0.6,28.19999 5.199996,20.46667 21.333336,38.33334 46.399996,51.66667 6.06667,3.2 27.46667,12.2 40.73333,17.06667 3.46667,1.26666 15,5.66666 25.6,9.73333 17.73333,6.86667 35.2,13.53333 54,20.66667 9,3.4 33.46667,12.93333 38,14.73333 3.06667,1.26667 5.4,2.46667 14.66667,7.6 9.46667,5.2 22.93333,17.06666 31.2,27.4 9.73333,12.13333 13.6,19.26666 34,62.6 2.53333,5.46666 7.26666,15.46666 10.53333,22.06666 l 5.8,12.13334 9.93333,3.33333 c 5.4,1.8 14.66667,5.06667 20.53334,7.13333 25.6,9.06667 29,10.2 29,9.26667 0,-1.13334 -3.86667,-9.73333 -10.53334,-23.6 -7.73333,-16.13333 -17.66666,-36.93333 -28.93333,-61 -16.13333,-34.26667 -28.6,-59.2 -32.66666,-65.4 -5.6,-8.46666 -13.4,-16.46666 -23.4,-23.86666 -4.26667,-3.13334 -7.86667,-5.73334 -8,-5.73334 -0.2,0 -2.86667,-1.53333 -5.93334,-3.46666 -7.13333,-4.4 -21.8,-11.4 -32.86666,-15.73334 -10.93334,-4.26666 -37.46667,-14.13333 -38,-14.13333 -0.2,0 -6.13334,-2.2 -13.2,-4.86667 -7,-2.73333 -18.80001,-7.13333 -26.13334,-9.8 -7.33333,-2.66666 -19.46667,-7.2 -27,-10.06666 -7.53333,-2.86667 -16.93333,-6.33334 -21,-7.8 -9.4,-3.4 -21.86666,-8.86667 -26.8,-11.73334 -5.59999,-3.33333 -12.86666,-9.66666 -16.39999,-14.33333 -6.13334,-8.2 -6.86667,-21.93333 -1.6,-30.86666 3.6,-6.13334 14,-14.33334 25.46666,-20.06667 7.66667,-3.8 31.26666,-11.26667 40.53333,-12.8 l 2.53333,-0.4 8.33334,-17 c 4.53333,-9.333331 8.13333,-17.266671 7.93333,-17.666671 -0.4,-0.6 -2.06667,-0.6 -7.33333,-0.13333 z"
         id="path3"
         style="stroke-width:0.0666665" />
      <path
         d="m 427.75636,220.2904 c -8.93333,7.8 -16.86667,14.73333 -17.66667,15.53333 -1.4,1.4 -1.4,1.46667 -0.4,6.73333 1.66667,8.53334 1.46667,27.53334 -0.33333,36.13334 -1.6,7.46666 -5.86667,18.06666 -10.6,26.4 l -3,5.26666 2.13333,4.8 c 2.53334,5.6 11.73334,25.4 14.86667,31.93333 l 2.2,4.6 4.6,-5.93333 c 17.26667,-21.93333 26.4,-43.73333 30.46667,-72.53333 1.13333,-7.93333 1.13333,-34.73333 -0.0667,-43 -1.6,-11.86667 -4.4,-24 -5.4,-24 -0.33333,0 -7.93333,6.33333 -16.8,14.06667 z"
         id="path4"
         style="stroke-width:0.0666665" />
      <path
         d="m 91.223034,237.42373 c -8.26666,6.4 -26.66666,21.2 -32,25.73333 -3.46666,2.93334 -6.46666,5.4 -6.53333,5.46667 -0.46667,0.33333 1.33333,15.46667 2.53333,20.93333 2.86667,13.4 8.66667,27.66667 16.13334,39.66667 4.06666,6.53333 13.46666,18.4 17.8,22.6 l 2.66666,2.6 5.73334,-11.86667 c 3.133326,-6.46667 5.666656,-11.93333 5.666656,-12.06667 0,-0.13333 1.66667,-3.53333 3.6,-7.6 l 3.66667,-7.33333 -4,-5.53333 c -6.666666,-9.2 -11.533326,-20.06667 -14.066666,-31.46667 -1.26666,-6 -1.06666,-24.6 0.4,-32 2.4,-12.2 2.33334,-12.2 -1.6,-9.13333 z"
         id="path5"
         style="stroke-width:0.0666665" />
      <path
         d="m 148.75637,249.0904 c -0.26667,0.46666 -2.06667,4.06666 -3.93334,8.13333 -3.53333,7.6 -30.33333,63.33333 -34.93333,72.66666 -2.93333,5.93334 -50.133326,103.6 -55.799996,115.53333 -2,4.2 -3.46667,7.73334 -3.26667,7.93334 0.46667,0.53333 58.799996,-19.26667 59.866666,-20.33333 0.46667,-0.46667 4.4,-8.66667 25.2,-52.13334 13.33333,-27.93333 17.8,-37.2 38.8,-80.59999 8.73333,-18.13334 16.06666,-33.6 16.26666,-34.4 0.33333,-1.33334 -0.2,-1.73334 -5.4,-3.6 -3.2,-1.13334 -9.86666,-3.73334 -14.86666,-5.8 -14.53333,-5.93334 -21.4,-8.26667 -21.93333,-7.4 z"
         id="path6"
         style="stroke-width:0.0666665" />
      <path
         d="m 142.62303,377.02373 c -2.53333,5.26666 -5.93333,12.4 -7.6,15.86666 -2.26666,4.73334 -2.8,6.53334 -2.2,7.06667 1.4,1.46667 23.46667,11.46667 34.06667,15.46667 40.66666,15.33333 87.06666,20.4 128.66666,14.06666 27.6,-4.13333 50.73334,-12 72.53334,-24.46666 3.53333,-2.06667 6.46666,-4.13334 6.46666,-4.66667 0,-0.46667 -0.93333,-2.93333 -2.06666,-5.33333 -3.93334,-8.33334 -11.93334,-25.73334 -11.93334,-25.93334 0,-0.73333 -2.13333,0.33334 -7.46666,3.86667 -17.2,11.33333 -37.46667,18.33333 -62,21.53333 -14.66667,1.93334 -29.13334,2.53334 -41.53333,1.8 -34.20001,-2.13333 -60.93334,-8.93333 -89.60001,-22.8 -6.73333,-3.26666 -12.39999,-5.93333 -12.53333,-5.93333 -0.2,0 -2.33333,4.26667 -4.8,9.46667 z"
         id="path7"
         style="stroke-width:0.0666665" />
    </g>
  </g>
</svg>
